<svg width="40" height="40" viewBox="0 0 40 40" fill="none" xmlns="http://www.w3.org/2000/svg">
<path d="M24 29.5C23.6025 29.4985 23.2216 29.3404 22.94 29.06L14.94 21.06C14.6566 20.78 14.4971 20.3983 14.4971 20C14.4971 19.6017 14.6566 19.2199 14.94 18.94L22.94 10.94C23.3139 10.5387 23.8771 10.3735 24.4086 10.5092C24.94 10.6449 25.355 11.0599 25.4908 11.5914C25.6265 12.1229 25.4613 12.686 25.06 13.06L18.12 20L25.06 26.94C25.3434 27.2199 25.5029 27.6017 25.5029 28C25.5029 28.3983 25.3434 28.78 25.06 29.06C24.7783 29.3404 24.3975 29.4985 24 29.5Z" fill="#0C0C0D"/>
</svg>
