<svg width="61" height="60" viewBox="0 0 61 60" fill="none" xmlns="http://www.w3.org/2000/svg">
<path fill-rule="evenodd" clip-rule="evenodd" d="M42.935 22.5007L34.595 16.3357C32.1555 14.5548 28.8445 14.5548 26.405 16.3357L18.08 22.5007C16.4682 23.6619 15.5092 25.5242 15.5 27.5107V38.6557C15.59 42.2456 18.57 45.0846 22.16 45.0007H38.84C42.43 45.0846 45.41 42.2456 45.5 38.6557V27.4957C45.4871 25.5178 44.535 23.6636 42.935 22.5007ZM43.25 38.6557C43.1605 41.0032 41.1876 42.8351 38.84 42.7507H22.16C19.8155 42.8268 17.8475 40.9995 17.75 38.6557V27.5107C17.758 26.2356 18.3773 25.0417 19.415 24.3007L27.74 18.1507C29.3841 16.9501 31.6159 16.9501 33.26 18.1507L41.585 24.3157C42.6219 25.0439 43.2423 26.2288 43.25 27.4957V38.6557ZM23.75 35.6257H37.25C37.8713 35.6257 38.375 36.1294 38.375 36.7507C38.375 37.3721 37.8713 37.8757 37.25 37.8757H23.75C23.1287 37.8757 22.625 37.3721 22.625 36.7507C22.625 36.1294 23.1287 35.6257 23.75 35.6257Z" fill="black"/>
</svg>
