<svg width="69" height="34" viewBox="0 0 69 34" fill="none" xmlns="http://www.w3.org/2000/svg">
<path d="M8.99688 12.14C9.63688 12.14 10.1969 11.98 10.7569 11.58C11.2369 11.22 11.5169 10.5 11.5169 9.42C11.5169 8.42 11.2369 7.7 10.7569 7.3C10.1969 6.94 9.63688 6.74 8.99688 6.74C8.31688 6.74 7.75688 6.94 7.27688 7.3C6.75688 7.7 6.51688 8.42 6.51688 9.42C6.51688 10.5 6.75688 11.22 7.27688 11.58C7.75688 11.98 8.31688 12.14 8.99688 12.14ZM8.99688 18.14C6.35688 18.14 4.27688 17.46 2.71688 16.06C1.11688 14.7 0.316875 12.46 0.316875 9.42C0.316875 6.58 1.11688 4.42 2.71688 2.9C4.27688 1.46 6.35688 0.699998 8.99688 0.699998C11.5569 0.699998 13.6769 1.5 15.2769 3.06C16.8769 4.66 17.6769 6.78 17.6769 9.42C17.6769 12.26 16.8769 14.42 15.2769 15.9C13.6769 17.42 11.5569 18.14 8.99688 18.14ZM27.6369 12.46C26.9569 12.62 26.1969 12.7 25.3969 12.7V18.18H19.1969V1.1H25.3969V6.62H27.6369V1.1H33.8369V18.18H27.6369V12.46ZM26.9169 19.54H33.8369V33.26H3.35688V19.5H10.3569V21.38H26.9169V19.54ZM10.3569 26.3V27.94H26.9169V26.3H10.3569ZM49.7844 13.78V6.62H46.1844V13.78H49.7844ZM39.7844 6.62H37.7844V1.22H58.2244V6.62H56.1844V13.78H58.2244V19.18H37.7844V13.78H39.7844V6.62ZM61.0644 20.18V1.1H68.0244V20.18H61.0644ZM61.0244 33.34V27.98H39.4244V21.58H68.0244V33.34H61.0244Z" fill="#4A6FA5"/>
</svg>
