<svg width="60" height="60" viewBox="0 0 60 60" fill="none" xmlns="http://www.w3.org/2000/svg">
<path d="M25 37.5C24.3125 37.5 23.7242 37.2554 23.235 36.7663C22.7458 36.2771 22.5008 35.6883 22.5 35V20C22.5 19.3125 22.745 18.7242 23.235 18.235C23.725 17.7458 24.3133 17.5008 25 17.5H40C40.6875 17.5 41.2763 17.745 41.7663 18.235C42.2563 18.725 42.5008 19.3133 42.5 20V35C42.5 35.6875 42.2554 36.2763 41.7663 36.7663C41.2771 37.2563 40.6883 37.5008 40 37.5H25ZM20 42.5C19.3125 42.5 18.7242 42.2554 18.235 41.7663C17.7458 41.2771 17.5008 40.6883 17.5 40V23.75C17.5 23.3958 17.62 23.0992 17.86 22.86C18.1 22.6208 18.3967 22.5008 18.75 22.5C19.1033 22.4992 19.4004 22.6192 19.6413 22.86C19.8821 23.1008 20.0017 23.3975 20 23.75V40H36.25C36.6042 40 36.9012 40.12 37.1412 40.36C37.3812 40.6 37.5008 40.8967 37.5 41.25C37.4992 41.6033 37.3792 41.9004 37.14 42.1412C36.9008 42.3821 36.6042 42.5017 36.25 42.5H20ZM25 22.5H40V20H25V22.5Z" fill="black"/>
</svg>
