<svg width="60" height="60" viewBox="0 0 60 60" fill="none" xmlns="http://www.w3.org/2000/svg">
<path d="M41.3228 30.7624L43.2697 32.4961C43.6292 32.7961 43.8694 33.2149 43.9469 33.6767C44.0243 34.1385 43.9338 34.6128 43.6918 35.0137L41.3444 39.0237C41.1622 39.3306 40.9022 39.584 40.5906 39.7581C40.2754 39.9325 39.9214 40.025 39.5612 40.0273C39.3377 40.0286 39.1154 39.9952 38.9022 39.9282L36.4104 39.1055C35.974 39.3855 35.5203 39.636 35.0494 39.8571L34.526 42.3833C34.4292 42.848 34.1705 43.2632 33.796 43.5549C33.4167 43.8518 32.9465 44.0085 32.465 43.9985H27.6043C27.1228 44.0085 26.6526 43.8518 26.2734 43.5549C25.8997 43.2629 25.6417 42.8477 25.5455 42.3833L25.02 39.8571C24.5552 39.6331 24.1043 39.3814 23.6697 39.1034L21.1693 39.9282C20.9561 39.9952 20.7338 40.0286 20.5103 40.0273C20.1508 40.0247 19.7976 39.9321 19.483 39.7581C19.1717 39.5846 18.9117 39.332 18.7293 39.0258L16.2978 35.0137C16.0451 34.6092 15.9485 34.1264 16.0262 33.6558C16.1039 33.1852 16.3506 32.7591 16.7199 32.4573L18.6647 30V29.2377L16.7178 27.504C16.3583 27.204 16.1181 26.7852 16.0406 26.3234C15.9632 25.8616 16.0537 25.3873 16.2957 24.9864L18.7271 20.9764C18.9092 20.6694 19.1693 20.4161 19.4809 20.242C19.7955 20.0679 20.1486 19.9754 20.5082 19.9728C20.7296 19.9588 20.9519 19.9792 21.1672 20.0331L23.618 20.8946C24.0559 20.6146 24.5096 20.3641 24.9791 20.1429L25.5045 17.6168C25.6008 17.1524 25.8588 16.7372 26.2325 16.4452C26.6117 16.1483 27.0819 15.9916 27.5634 16.0015H32.3832C32.8647 15.9916 33.3349 16.1483 33.7141 16.4452C34.091 16.7402 34.3494 17.1559 34.442 17.6168L34.9675 20.1429C35.4341 20.3655 35.8842 20.6167 36.3178 20.8967L38.8203 20.074C39.0981 19.9837 39.3915 19.952 39.6822 19.9809C39.9728 20.0098 40.2543 20.0987 40.5088 20.242C40.821 20.4186 41.0795 20.6727 41.2625 20.9742L43.6918 24.9864C43.948 25.3875 44.0495 25.868 43.9774 26.3384C43.9052 26.8088 43.6644 27.2369 43.2998 27.5428L41.3228 29.2269V30.7624Z" stroke="black" stroke-width="2"/>
<path d="M35.3832 30.0001C35.3832 31.4281 34.816 32.7975 33.8063 33.8072C32.7966 34.8169 31.4271 35.3842 29.9992 35.3842C28.5713 35.3842 27.2018 34.8169 26.1921 33.8072C25.1824 32.7975 24.6152 31.4281 24.6152 30.0001C24.6152 28.5722 25.1824 27.2027 26.1921 26.193C27.2018 25.1833 28.5713 24.6161 29.9992 24.6161C31.4271 24.6161 32.7966 25.1833 33.8063 26.193C34.816 27.2027 35.3832 28.5722 35.3832 30.0001Z" stroke="black" stroke-width="2"/>
</svg>
