<svg width="60" height="60" viewBox="0 0 60 60" fill="none" xmlns="http://www.w3.org/2000/svg">
<g opacity="0.4">
<path d="M41.3228 30.7623L43.2697 32.496C43.6292 32.796 43.8694 33.2148 43.9469 33.6766C44.0243 34.1384 43.9338 34.6127 43.6918 35.0135L41.3444 39.0236C41.1622 39.3305 40.9022 39.5839 40.5906 39.7579C40.2754 39.9324 39.9214 40.0249 39.5612 40.0271C39.3377 40.0285 39.1154 39.9951 38.9022 39.9281L36.4104 39.1054C35.974 39.3854 35.5203 39.6359 35.0494 39.857L34.526 42.3832C34.4292 42.8479 34.1705 43.2631 33.796 43.5548C33.4167 43.8516 32.9465 44.0084 32.465 43.9984H27.6043C27.1228 44.0084 26.6526 43.8516 26.2734 43.5548C25.8997 43.2627 25.6417 42.8476 25.5455 42.3832L25.02 39.857C24.5552 39.6329 24.1043 39.3812 23.6697 39.1032L21.1693 39.9281C20.9561 39.9951 20.7338 40.0285 20.5103 40.0271C20.1508 40.0246 19.7976 39.932 19.483 39.7579C19.1717 39.5845 18.9117 39.3319 18.7293 39.0257L16.2978 35.0135C16.0451 34.609 15.9485 34.1263 16.0262 33.6557C16.1039 33.1851 16.3506 32.7589 16.7199 32.4572L18.6647 29.9999V29.2375L16.7178 27.5039C16.3583 27.2039 16.1181 26.785 16.0406 26.3232C15.9632 25.8614 16.0537 25.3872 16.2957 24.9863L18.7271 20.9763C18.9092 20.6693 19.1693 20.416 19.4809 20.2419C19.7955 20.0678 20.1486 19.9753 20.5082 19.9727C20.7296 19.9587 20.9519 19.9791 21.1672 20.033L23.618 20.8944C24.0559 20.6145 24.5096 20.3639 24.9791 20.1428L25.5045 17.6166C25.6008 17.1522 25.8588 16.7371 26.2325 16.4451C26.6117 16.1482 27.0819 15.9915 27.5634 16.0014H32.3832C32.8647 15.9915 33.3349 16.1482 33.7141 16.4451C34.091 16.7401 34.3494 17.1558 34.442 17.6166L34.9675 20.1428C35.4341 20.3654 35.8842 20.6166 36.3178 20.8966L38.8203 20.0739C39.0981 19.9836 39.3915 19.9518 39.6822 19.9808C39.9728 20.0097 40.2543 20.0986 40.5088 20.2419C40.821 20.4185 41.0795 20.6726 41.2625 20.9741L43.6918 24.9863C43.948 25.3874 44.0495 25.8679 43.9774 26.3383C43.9052 26.8087 43.6644 27.2368 43.2998 27.5426L41.3228 29.2268V30.7623Z" stroke="#767680" stroke-width="2"/>
<path d="M35.3832 30C35.3832 31.4279 34.816 32.7974 33.8063 33.8071C32.7966 34.8168 31.4271 35.384 29.9992 35.384C28.5713 35.384 27.2018 34.8168 26.1921 33.8071C25.1824 32.7974 24.6152 31.4279 24.6152 30C24.6152 28.5721 25.1824 27.2026 26.1921 26.1929C27.2018 25.1832 28.5713 24.616 29.9992 24.616C31.4271 24.616 32.7966 25.1832 33.8063 26.1929C34.816 27.2026 35.3832 28.5721 35.3832 30Z" stroke="#767680" stroke-width="2"/>
</g>
</svg>
